<?xml version="1.0" standalone="yes"?>
<svg xmlns="http://www.w3.org/2000/svg" width="236" height="247">

<path style="fill:#9d9088; stroke:none;" d="M35.6667 30.3333C35.2222 30.7778 36.2778 30.7222 36.3333 30.6667C36.7778 30.2222 35.7222 30.2778 35.6667 30.3333z"/>
<path style="fill:#dcd0c7; stroke:none;" d="M37 30L38 31L37 30z"/>
<path style="fill:#cebbb0; stroke:none;" d="M34 31L35 32L34 31z"/>
<path style="fill:#462f23; stroke:none;" d="M35 31C35.346 35.3251 36.7038 36.3298 41 36C39.4661 37.0226 39.5977 36.8046 39 38C41.3772 38.572 43.558 38.8905 46 39C43.4731 34.8457 39.6926 32.2173 35 31z"/>
<path style="fill:#cebbb0; stroke:none;" d="M38 31L39 32L38 31z"/>
<path style="fill:#745443; stroke:none;" d="M34 32L34 35C34.6961 33.4463 34.6961 33.5537 34 32z"/>
<path style="fill:#7f746c; stroke:none;" d="M39 32L40 33L39 32z"/>
<path style="fill:#7b6b5f; stroke:none;" d="M40 33L41 34L40 33z"/>
<path style="fill:#cebbb0; stroke:none;" d="M41 33L42 34L41 33z"/>
<path style="fill:#b39c91; stroke:none;" d="M42 34L43 35L42 34z"/>
<path style="fill:#b8aea5; stroke:none;" d="M34 35L35 36L34 35z"/>
<path style="fill:#957e70; stroke:none;" d="M43 35L44 36L43 35z"/>
<path style="fill:#b8aea5; stroke:none;" d="M35 36L36 37L35 36z"/>
<path style="fill:#7b6b5f; stroke:none;" d="M36 36L37 37L36 36z"/>
<path style="fill:#310f06; stroke:none;" d="M38 36C39.2483 36.6848 39.5485 36.7488 41 37C39.7516 36.3152 39.4516 36.2512 38 36z"/>
<path style="fill:#cebbb0; stroke:none;" d="M45 36L46 37L45 36z"/>
<path style="fill:#b8aea5; stroke:none;" d="M37 37L38 38L37 37z"/>
<path style="fill:#7f746c; stroke:none;" d="M38 37L39 38L38 37z"/>
<path style="fill:#957e70; stroke:none;" d="M45 37L46 38L45 37z"/>
<path style="fill:#9d9088; stroke:none;" d="M40 38L41 39L40 38z"/>
<path style="fill:#7b6b5f; stroke:none;" d="M46.3333 38.6667C46.2777 38.7223 46.2222 39.7777 46.6667 39.3333C46.7222 39.2778 46.7778 38.2222 46.3333 38.6667z"/>
<path style="fill:#b8aea5; stroke:none;" d="M47 38L48 39L47 38z"/>
<path style="fill:#dcd0c7; stroke:none;" d="M43 39L44 40L43 39z"/>
<path style="fill:#9d9088; stroke:none;" d="M44.6667 39.3333C44.2222 39.7778 45.2778 39.7222 45.3333 39.6667C45.7778 39.2222 44.7222 39.2778 44.6667 39.3333z"/>
<path style="fill:#462f23; stroke:none;" d="M47 39L48 40L47 39z"/>
<path style="fill:#7b6b5f; stroke:none;" d="M48.3333 39.6667C48.2778 39.7222 48.2222 40.7778 48.6667 40.3333C48.7222 40.2778 48.7778 39.2222 48.3333 39.6667z"/>
<path style="fill:#9d9088; stroke:none;" d="M49 39L50 40L49 39z"/>
<path style="fill:#dcd0c7; stroke:none;" d="M47 40L48 41L47 40z"/>
<path style="fill:#462f23; stroke:none;" d="M49.6667 40.3333C49.2222 40.7778 50.2778 40.7222 50.3333 40.6667C50.7778 40.2222 49.7222 40.2778 49.6667 40.3333z"/>
<path style="fill:#575049; stroke:none;" d="M51 40C53.138 43.3206 56.3567 44.6546 60 46C57.877 42.7589 54.52 41.467 51 40z"/>
<path style="fill:#cebbb0; stroke:none;" d="M49 41L50 42L49 41z"/>
<path style="fill:#7f746c; stroke:none;" d="M50 41L51 42L50 41z"/>
<path style="fill:#b8aea5; stroke:none;" d="M54 41L55 42L54 41z"/>
<path style="fill:#cebbb0; stroke:none;" d="M51 42L52 43L51 42z"/>
<path style="fill:#7f746c; stroke:none;" d="M52 42L53 43L52 42z"/>
<path style="fill:#b8aea5; stroke:none;" d="M56.6667 42.3333C56.2222 42.7778 57.2778 42.7222 57.3333 42.6667C57.7778 42.2222 56.7222 42.2778 56.6667 42.3333z"/>
<path style="fill:#cebbb0; stroke:none;" d="M53 43L54 44L53 43z"/>
<path style="fill:#7f746c; stroke:none;" d="M54 43L55 44L54 43M58 43L59 44L58 43z"/>
<path style="fill:#b8aea5; stroke:none;" d="M59 43L60 44L59 43z"/>
<path style="fill:#f8e0d3; stroke:none;" d="M88 43C90.6127 44.0977 93.1645 43.9928 96 44C93.3873 42.9023 90.8355 43.0072 88 43z"/>
<path style="fill:#dcd0c7; stroke:none;" d="M55 44L56 45L55 44z"/>
<path style="fill:#957e70; stroke:none;" d="M60 44L61 45L60 44z"/>
<path style="fill:#dcd0c7; stroke:none;" d="M61 44C62.2483 44.6848 62.5485 44.7488 64 45C62.7516 44.3152 62.4516 44.2512 61 44z"/>
<path style="fill:#ebb69f; stroke:none;" d="M88 44C90.6127 45.0977 93.1645 44.9928 96 45C93.3873 43.9023 90.8355 44.0072 88 44z"/>
<path style="fill:#9d9088; stroke:none;" d="M58 45L59 46L58 45z"/>
<path style="fill:#462f23; stroke:none;" d="M60 45C61.6864 46.6559 62.7463 47.2507 65 48C63.3135 46.344 62.2537 45.7493 60 45z"/>
<path style="fill:#957e70; stroke:none;" d="M62 45C63.458 46.0811 64.248 46.4361 66 47C64.4569 45.7333 63.9522 45.5108 62 45z"/>
<path style="fill:#f1c5ab; stroke:none;" d="M85 48C86.9225 47.0985 86.9988 46.9238 88 45C85.8763 45.8993 85.8993 45.8764 85 48z"/>
<path style="fill:#d89b76; stroke:none;" d="M87 46C89.9256 46.937 93.0134 46.496 95.9853 47.6481C101.378 49.7387 103.845 52.8572 110 52C102.421 47.9913 95.9636 43.3564 87 46z"/>
<path style="fill:#f8e0d3; stroke:none;" d="M96 45C97.506 45.683 98.3148 45.8259 100 46C98.4939 45.317 97.6852 45.1741 96 45z"/>
<path style="fill:#dcd0c7; stroke:none;" d="M59 46L60 47L59 46z"/>
<path style="fill:#9d9088; stroke:none;" d="M60 46L61 47L60 46z"/>
<path style="fill:#d6896a; stroke:none;" d="M87 47C91.1489 48.7897 96.4911 49.3928 101 50C96.6401 46.7045 92.2941 46.0645 87 47z"/>
<path style="fill:#f1c5ab; stroke:none;" d="M101 46C106.163 50.8577 117.981 53.3013 125 54C125.602 62.5581 136.612 65.244 144 66C141.968 67.5927 140.36 68.8362 139 71C142.538 70.3723 145.462 70.3723 149 71C147.466 72.0226 147.598 71.8046 147 73C148.763 74.3974 150.587 77.0724 152 75L158 84C160.695 77.0697 151.357 71.6683 147.001 67.8156C140.411 61.9877 134.918 55.815 126.715 52.0741C123.698 50.6987 120.195 50.9944 117 50.2539C111.63 49.0095 106.406 46.9302 101 46z"/>
<path style="fill:#f8e0d3; stroke:none;" d="M104 46C105.458 47.0811 106.248 47.4361 108 48C106.457 46.7334 105.952 46.5107 104 46z"/>
<path style="fill:#dcd0c7; stroke:none;" d="M61 47L62 48L61 47z"/>
<path style="fill:#957e70; stroke:none;" d="M62 47L63 48L62 47z"/>
<path style="fill:#7b6b5f; stroke:none;" d="M65 49L69 48C66.9535 47.2489 66.4043 47.3444 65 49z"/>
<path style="fill:#9d9088; stroke:none;" d="M64 48L65 49L64 48z"/>
<path style="fill:#644434; stroke:none;" d="M66 48C70.0258 51.0992 76.9891 52.1383 82 53C77.5233 48.5149 72.0491 48.2343 66 48z"/>
<path style="fill:#7f746c; stroke:none;" d="M70.6667 48.3333C70.2222 48.7778 71.2778 48.7222 71.3333 48.6667C71.7777 48.2223 70.7223 48.2777 70.6667 48.3333z"/>
<path style="fill:#9d9088; stroke:none;" d="M74 48L75 49L74 48z"/>
<path style="fill:#e8a98b; stroke:none;" d="M85 48L85 52C85.7102 50.2405 85.7102 49.7595 85 48z"/>
<path style="fill:#c28561; stroke:none;" d="M86 50C91.7473 49.1836 96.3885 51.4407 102 52C98.3718 48.8306 89.6824 45.7868 86 50z"/>
<path style="fill:#f8e0d3; stroke:none;" d="M109 48C112.986 49.9312 117.581 50.7981 122 51C117.834 48.5312 113.777 48.0163 109 48z"/>
<path style="fill:#cebbb0; stroke:none;" d="M65 49C66.2484 49.6848 66.5484 49.7488 68 50C66.7517 49.3152 66.4515 49.2512 65 49z"/>
<path style="fill:#b39c91; stroke:none;" d="M77 49L78 50L77 49z"/>
<path style="fill:#ae735a; stroke:none;" d="M88 49C94.7183 52.9876 102.542 54.2175 110 56C106.768 50.8716 93.8907 49.4818 88 49z"/>
<path style="fill:#e8a98b; stroke:none;" d="M104 49C108.866 52.9323 115.59 52.3783 120 57L124 56C124.211 58.7386 124.303 59.422 127 60C125.83 57.9251 125.308 56.3628 125 54C117.868 52.7917 111.267 49.3329 104 49z"/>
<path style="fill:#cebbb0; stroke:none;" d="M68 50L69 51L68 50z"/>
<path style="fill:#957e70; stroke:none;" d="M69 50L70 51L69 50z"/>
<path style="fill:#431b10; stroke:none;" d="M71 50C75.08 54.1235 81.7008 57.6534 87 60C86.4455 58.1958 86.1664 56.8728 86 55L83 52C78.8028 52.277 75.1225 50.617 71 50z"/>
<path style="fill:#957e70; stroke:none;" d="M79 50L80 51L79 50z"/>
<path style="fill:#754a38; stroke:none;" d="M86 50C87.9841 55.8081 99.4333 58.588 105 58C99.5386 54.5526 92.4611 50.2054 86 50z"/>
<path style="fill:#b8aea5; stroke:none;" d="M70 51L71 52L70 51z"/>
<path style="fill:#745443; stroke:none;" d="M71 51L72 52L71 51z"/>
<path style="fill:#7b6b5f; stroke:none;" d="M81 51L82 52L81 51z"/>
<path style="fill:#b39c91; stroke:none;" d="M82 51L83 52L82 51M72 52L73 53L72 52z"/>
<path style="fill:#575049; stroke:none;" d="M73 52L74 53L73 52z"/>
<path style="fill:#603227; stroke:none;" d="M83 52C84.1603 53.9813 85.0494 54.74 87 56C85.8446 53.867 85.118 53.2176 83 52z"/>
<path style="fill:#ac7f6d; stroke:none;" d="M84.6667 52.3333C84.2222 52.7778 85.2778 52.7222 85.3333 52.6667C85.7778 52.2222 84.7222 52.2778 84.6667 52.3333z"/>
<path style="fill:#935040; stroke:none;" d="M94 52C96.1631 54.2773 97.8848 54.784 101 55L101 53L94 52z"/>
<path style="fill:#c28561; stroke:none;" d="M107 52C108.139 53.0154 108.612 53.3087 110 54C109.02 52.2167 109.092 52.4057 107 52z"/>
<path style="fill:#b8aea5; stroke:none;" d="M74 53L75 54L74 53z"/>
<path style="fill:#575049; stroke:none;" d="M75 53L76 54L75 53z"/>
<path style="fill:#310f06; stroke:none;" d="M86 53L87 56L85 56C87.2112 59.872 89.4522 59.0486 93 57C90.8377 54.8288 88.9408 53.871 86 53z"/>
<path style="fill:#d6896a; stroke:none;" d="M110 53L110 55L120 57C117.758 53.1193 114.172 53.017 110 53z"/>
<path style="fill:#b8aea5; stroke:none;" d="M76 54L77 55L76 54z"/>
<path style="fill:#745443; stroke:none;" d="M77 54L78 55L77 54z"/>
<path style="fill:#b8aea5; stroke:none;" d="M78 55L79 56L78 55z"/>
<path style="fill:#745443; stroke:none;" d="M79 55L80 56L79 55z"/>
<path style="fill:#935040; stroke:none;" d="M101 55L101 57C103.73 56.8826 106.314 56.5008 109 56C106.387 54.9023 103.836 55.0072 101 55z"/>
<path style="fill:#c28561; stroke:none;" d="M110 55C114.075 57.8975 118.139 57.9963 123 58C119.214 56.3916 114.136 55.2747 110 55z"/>
<path style="fill:#d89b76; stroke:none;" d="M80 56C78.6628 57.2796 77.6002 58.0305 76 59C78.3226 59.9215 79.5805 59.6873 82 59C81.3087 57.6116 81.0154 57.1394 80 56z"/>
<path style="fill:#ac7f6d; stroke:none;" d="M81.3333 56.6667C81.2778 56.7222 81.2222 57.7778 81.6667 57.3333C81.7223 57.2777 81.7777 56.2223 81.3333 56.6667z"/>
<path style="fill:#743626; stroke:none;" d="M93 56C95.2275 57.2581 97.5967 58.096 100 59C98.1767 56.1822 96.2845 56.1049 93 56z"/>
<path style="fill:#754a38; stroke:none;" d="M106 56L106 58L112 60C110.881 56.8073 109.284 56.375 106 56z"/>
<path style="fill:#9d6b52; stroke:none;" d="M110 56C111.458 57.0811 112.248 57.4361 114 58C112.457 56.7333 111.952 56.5107 110 56z"/>
<path style="fill:#d6896a; stroke:none;" d="M121 56C124.849 62.3675 129.138 67.9353 137 69C135.057 67.4333 133.421 66.5972 131 66C130.286 61.683 128.165 60.6694 124 60L124 56L121 56z"/>
<path style="fill:#d4a790; stroke:none;" d="M73 66C74.9343 62.3311 76.1189 59.8699 80 58C74.5717 56.2946 73.1432 61.5911 73 66z"/>
<path style="fill:#745443; stroke:none;" d="M82 57L83 58L82 57z"/>
<path style="fill:#8f5e44; stroke:none;" d="M92 57C93.769 57.7789 95.0359 57.9124 97 58C95.231 57.2211 93.964 57.0876 92 57z"/>
<path style="fill:#743626; stroke:none;" d="M104 58C105.956 59.3195 106.608 59.2995 109 59L111 63C114.694 62.1205 118.214 62.0025 122 62C122.499 68.0349 129.985 78.8652 135 70C131.835 69.3236 128.022 68.3462 125.509 66.1613C123.843 64.7121 123.325 62.287 121.491 61.027C119.363 59.5659 116.453 60.1638 114.039 59.8711C110.416 59.4319 107.725 57.6919 104 58z"/>
<path style="fill:#ae735a; stroke:none;" d="M82 58C79.5139 60.9395 74.7825 62.3295 74 66C78.5942 63.433 82.9669 64.425 88 64C86.7527 60.7002 85.1795 59.4765 82 58z"/>
<path style="fill:#8f5e44; stroke:none;" d="M83 58L84 59L83 58z"/>
<path style="fill:#644434; stroke:none;" d="M90 58L91 59L90 58z"/>
<path style="fill:#e8a98b; stroke:none;" d="M91 58C92.2484 58.6848 92.5484 58.7488 94 59L90 61C92.7628 63.4034 95.378 63.8324 99 64C99 62.2032 98.9857 62.4785 98 61L101 63L102 60C98.2553 58.6352 94.984 58.0356 91 58z"/>
<path style="fill:#9d6b52; stroke:none;" d="M98 58L99 59L98 58z"/>
<path style="fill:#431b10; stroke:none;" d="M100 58C104.165 62.56 109.759 67.1658 116 68C113.829 66.198 111.607 65.0935 109 64C110.534 62.9774 110.402 63.1954 111 62L109 59C105.856 59.1216 103.074 58.6397 100 58z"/>
<path style="fill:#935040; stroke:none;" d="M112 58C114.484 60.843 119.39 60.1405 123 61C122.163 57.175 115.675 58.6948 112 58z"/>
<path style="fill:#ae735a; stroke:none;" d="M114 58C116.332 58.9845 118.457 58.9813 121 59C118.668 58.0155 116.543 58.0187 114 58z"/>
<path style="fill:#745443; stroke:none;" d="M89 59L90 60L89 59z"/>
<path style="fill:#f1c5ab; stroke:none;" d="M90 61L94 60C91.9535 59.2489 91.4043 59.3444 90 61z"/>
<path style="fill:#935040; stroke:none;" d="M100 59L101 60L100 59z"/>
<path style="fill:#d6896a; stroke:none;" d="M74 63C76.5123 62.6663 78.62 61.8544 81 61C77.8826 59.7369 75.8289 60.1764 74 63z"/>
<path style="fill:#754a38; stroke:none;" d="M87 60L87 62C88.6352 61.4549 88.4549 61.6352 89 60L87 60z"/>
<path style="fill:#d6896a; stroke:none;" d="M89 60L87 65C89.6895 65.4176 90.5537 65.7173 92 68C94.3786 68.0273 94.6832 68.0599 96 70L98 69L98 72C98.9846 69.1938 97.6334 66.847 97 64C93.8533 63.1818 91.5956 61.9466 89 60z"/>
<path style="fill:#754a38; stroke:none;" d="M102 60L103 61L102 60z"/>
<path style="fill:#d89b76; stroke:none;" d="M98 61L99 64C97.3821 65.314 97.3067 65.8772 97 68C98.731 66.994 100.053 66.4535 102 66C101.256 63.3202 100.471 62.2809 98 61z"/>
<path style="fill:#ebb69f; stroke:none;" d="M101 61L102 66L98 66C99.3847 69.4433 101 73.5116 105 71C103.316 70.7761 102.686 70.7817 101 71L103 65L107 66C105.483 63.0822 104.107 62.0777 101 61z"/>
<path style="fill:#c28561; stroke:none;" d="M103 61L104 62L103 61z"/>
<path style="fill:#9d6b52; stroke:none;" d="M123 61C124.042 67.367 128.988 69.2509 135 70C131.838 66.5408 127.098 63.2722 123 61M105 62L106 63L105 62z"/>
<path style="fill:#603227; stroke:none;" d="M109 64C111.327 65.3175 113.433 66.2608 116 67C114.466 68.0226 114.598 67.8046 114 69C115.28 70.3371 116.03 71.3998 117 73C118.195 71.7772 118.316 71.58 119 70C121.317 70.9595 122.505 71.1834 125 71C122.189 67.8229 119.151 66.6263 115 66C116.686 64.3441 117.746 63.7493 120 63C116.309 61.4545 112.409 61.9582 109 64z"/>
<path style="fill:#431b10; stroke:none;" d="M115 66L123 68L122 62C118.918 62.7469 116.808 63.356 115 66z"/>
<path style="fill:#754a38; stroke:none;" d="M75 64C75.8228 66.712 76.5669 67.5381 79 69L79 65L85 66C81.9579 63.0789 79.0247 63.8414 75 64z"/>
<path style="fill:#ae735a; stroke:none;" d="M106 63L107 64L106 63z"/>
<path style="fill:#d89b76; stroke:none;" d="M131 63C132.623 67.8874 137.346 68.4971 142 68C138.442 66.3372 134.733 64.0898 131 63z"/>
<path style="fill:#ebb69f; stroke:none;" d="M134 63C136.416 66.9423 139.553 67.4735 144 67C140.88 65.2375 137.449 63.9842 134 63z"/>
<path style="fill:#743626; stroke:none;" d="M85 64L83 68C84.58 68.6836 84.7772 68.8048 86 70C86.8743 67.9479 86.9528 66.2528 87 64L85 64z"/>
<path style="fill:#ac7f6d; stroke:none;" d="M107 64L108 65L107 64z"/>
<path style="fill:#603227; stroke:none;" d="M79 65C79.351 69.8109 86.6859 74.1327 88 68C86.8046 68.5977 87.0226 68.4661 86 70C84.3791 67.1438 82.1791 65.7427 79 65z"/>
<path style="fill:#ac7f6d; stroke:none;" d="M87 65C89.0886 68.1475 91.3703 68.702 95 68C95.0405 70.5899 94.9463 72.5893 94 75C97.3522 76.6794 100.245 77.7591 104 78C102.494 77.317 101.685 77.1741 100 77L98 69C95.9146 69 96.2759 69.1381 96 67L92 68C91.3456 64.9461 89.9934 65.0642 87 65z"/>
<path style="fill:#f1c5ab; stroke:none;" d="M103 65L101 71C104.401 70.5676 107.002 69.6771 110 68L110 66L109 65L103 65z"/>
<path style="fill:#b39c91; stroke:none;" d="M74 66L75 67L74 66z"/>
<path style="fill:#ae735a; stroke:none;" d="M110 66L111 67L110 66z"/>
<path style="fill:#ac7f6d; stroke:none;" d="M75 67L76 68L75 67z"/>
<path style="fill:#8f5e44; stroke:none;" d="M87 67C89.5417 69.9228 92.6718 72.0156 96 74L95 68C92.1257 68.1989 89.7975 67.6848 87 67z"/>
<path style="fill:#ebb69f; stroke:none;" d="M107 71C109.73 71.1174 112.314 71.4992 115 72C112.91 67.9047 109.71 66.7726 107 71z"/>
<path style="fill:#d4a790; stroke:none;" d="M76 68L77 69L76 68z"/>
<path style="fill:#957e70; stroke:none;" d="M77 68L78 69L77 68z"/>
<path style="fill:#e8a98b; stroke:none;" d="M99 68L98 73C100.124 73.8993 100.101 73.8764 101 76C103.013 75.4993 104.039 75.3632 106 76C106.957 74.4834 107.387 73.6614 108 72L110 72C110 73.7969 110.014 73.5215 111 75L113 74C113.768 75.3141 113.686 75.2321 115 76C113.964 77.1863 113.661 77.6037 113 79C114.041 80.4538 114.008 81.1426 114 83C115.923 82.0985 115.999 81.9238 117 80C120.507 87.7177 126.792 93.5256 136 92C137.314 93.6179 137.877 93.6933 140 94L138 99C141.24 99.9254 142.495 100.988 144 104C146.428 101.186 146.892 98.6745 147 95L153 97C154.548 95.3334 155.901 93.9787 157 92L153 94L153 87C148.19 85.3378 138.495 85.9383 135 90L133 90C130.377 86.9135 125.412 85.1086 122.157 82.2546C119.028 79.5123 117.516 75.2296 114.407 72.7022C111.923 70.6824 108.036 70.5723 105 70L104 73C101.676 71.6182 100.52 70.2182 99 68z"/>
<path style="fill:#ae735a; stroke:none;" d="M113 68L114 69L113 68M137 71C138.457 69.8966 138.897 69.4567 140 68C137.636 68.4825 137.482 68.636 137 71z"/>
<path style="fill:#9d9088; stroke:none;" d="M78.6667 69.3333C78.2222 69.7778 79.2778 69.7222 79.3333 69.6667C79.7778 69.2222 78.7222 69.2778 78.6667 69.3333z"/>
<path style="fill:#745443; stroke:none;" d="M88 69C87.4549 70.6352 87.6352 70.4549 86 71C88.2393 71.8108 89.647 71.5287 92 71C90.6234 70.0886 89.5601 69.5962 88 69z"/>
<path style="fill:#8c6553; stroke:none;" d="M114 69C114.545 70.6352 114.365 70.4549 116 71L116 69L114 69z"/>
<path style="fill:#935040; stroke:none;" d="M135 69L135 72C136.195 70.7772 136.316 70.58 137 69L135 69z"/>
<path style="fill:#957e70; stroke:none;" d="M80 70C81.2484 70.6848 81.5484 70.7488 83 71C81.7517 70.3152 81.4515 70.2512 80 70z"/>
<path style="fill:#8f5e44; stroke:none;" d="M119 70C119.98 71.7834 119.908 71.5943 122 72C120.861 70.9845 120.388 70.6913 119 70z"/>
<path style="fill:#ebb69f; stroke:none;" d="M135 74C138.077 72.6948 140.66 72.097 144 72C144.584 75.9706 146.029 77.4163 150 78C151.336 81.8986 154.092 82.5957 158 83C156.229 80.135 153.972 78.3262 153 75C151.805 75.5977 152.023 75.4661 151 77C149.945 74.5392 147.36 73.3433 149 71C143.973 69.8136 137.942 69.0423 135 74z"/>
<path style="fill:#9d9088; stroke:none;" d="M84.6667 71.3333C84.2222 71.7778 85.2778 71.7222 85.3333 71.6667C85.7778 71.2222 84.7222 71.2778 84.6667 71.3333z"/>
<path style="fill:#743626; stroke:none;" d="M90 71C91.5431 72.2667 92.0478 72.4892 94 73C92.542 71.9189 91.752 71.5639 90 71z"/>
<path style="fill:#d89b76; stroke:none;" d="M115 71L116 72L115 71z"/>
<path style="fill:#431b10; stroke:none;" d="M123 71C126.334 73.6907 130.713 74.2482 133 78C137.623 78.6324 140.834 81.5241 145.001 83.4391C149.93 85.7044 155.637 87.2743 161 88C158.854 84.5786 154.656 83.2783 151 81.6651C142.216 77.7898 132.484 72.632 123 71z"/>
<path style="fill:#d4a790; stroke:none;" d="M89 72L90 73L89 72z"/>
<path style="fill:#957e70; stroke:none;" d="M90 72L91 73L90 72z"/>
<path style="fill:#d89b76; stroke:none;" d="M108 72C107.528 73.4161 107.186 73.8137 106 75C107.797 77.1674 109.473 78.7558 112 80L111 85C115.704 86.8698 119.617 88.3675 119 94C124.237 95.5088 128.629 99.2374 134 100L132 96C134.865 97.6326 137.711 99.634 136 103C138.108 104.086 140.785 104.722 142.397 106.572C144.201 108.641 143.63 111.308 144.563 113.696C146.267 118.057 152.651 123.7 157 125L156 128C160.052 131.343 164.186 140.728 165.205 146.039C165.759 148.924 164.795 151.93 166.1 154.674C168.107 158.893 173.472 165.053 176.9 168.197C179.356 170.45 182.214 171.135 184 174C189.334 167.188 181.731 162.982 177.62 157.905C169.247 147.563 164.498 132.789 161 120L158 121C161.217 112.772 161.339 105.774 160.285 97C159.833 93.2304 160.389 90.1968 157 88C157.94 92.5585 159.007 96.3666 158 101C155.792 100.547 155.449 100.354 154 102L152 102C151.02 100.217 151.092 100.406 149 100L149 95L147 95C146.796 98.2013 145.953 100.949 145 104C143.044 100.857 141.684 99.5827 138 99C138.89 97.2554 139.453 95.875 140 94C138.048 93.4892 137.543 93.2667 136 92C127.781 92.3347 119.886 88.312 118 80L114 83C114.153 80.9694 114.326 80.4086 113 79L113 77L115 77L113 74L111 75L110 72L108 72z"/>
<path style="fill:#f1c5ab; stroke:none;" d="M115 72C117.876 81.98 125.731 84.3043 133 90L135 90C138.397 87.3865 142.963 87.3667 147 86C142.719 84.9758 138.246 87.5827 134.004 85.821C126.777 82.8198 122.055 75.2894 115 72z"/>
<path style="fill:#310f06; stroke:none;" d="M118 72C120.275 75.1951 122.439 77.3368 126 79L128 76C124.726 74.3325 121.57 72.8918 118 72z"/>
<path style="fill:#644434; stroke:none;" d="M120 72C123.061 74.2248 126.422 75.7797 130 77C128.714 72.5837 124.154 72.1437 120 72z"/>
<path style="fill:#d89b76; stroke:none;" d="M134.333 72.6667C134.278 72.7222 134.222 73.7778 134.667 73.3333C134.722 73.2777 134.778 72.2223 134.333 72.6667z"/>
<path style="fill:#e8a98b; stroke:none;" d="M136 73C138.613 74.0977 141.165 73.9928 144 74L144 72C141.151 72.0208 138.729 72.1898 136 73z"/>
<path style="fill:#cebbb0; stroke:none;" d="M90 73C90.5451 74.6352 90.3648 74.4549 92 75C91.455 73.3649 91.6352 73.545 90 73z"/>
<path style="fill:#8c6553; stroke:none;" d="M91 73L94 78C95.8752 78.0683 97.2082 78.3977 99 79C97.9391 76.5489 95.3763 75.5851 95 73L91 73z"/>
<path style="fill:#c28561; stroke:none;" d="M98 73L100 77L105 78L106 77L105 74L101 76C100.518 73.636 100.364 73.4825 98 73z"/>
<path style="fill:#8f5e44; stroke:none;" d="M118 73L119 74L118 73z"/>
<path style="fill:#9d6b52; stroke:none;" d="M133 73L134 74L133 73M119 74L120 75L119 74M134.667 74.3333C134.222 74.7778 135.278 74.7222 135.333 74.6667C135.778 74.2222 134.722 74.2778 134.667 74.3333z"/>
<path style="fill:#ae735a; stroke:none;" d="M136 74C138.516 75.8743 140.903 76.5352 144 77C143.146 73.0129 139.511 74 136 74z"/>
<path style="fill:#b39c91; stroke:none;" d="M92 75L93 76L92 75z"/>
<path style="fill:#8c6553; stroke:none;" d="M120 75L121 76L120 75z"/>
<path style="fill:#745443; stroke:none;" d="M130.667 75.3333C130.222 75.7778 131.278 75.7222 131.333 75.6667C131.778 75.2222 130.722 75.2777 130.667 75.3333z"/>
<path style="fill:#743626; stroke:none;" d="M132 75L132 78C132.696 76.4463 132.696 76.5537 132 75z"/>
<path style="fill:#935040; stroke:none;" d="M136.667 75.3333C136.222 75.7778 137.278 75.7222 137.333 75.6667C137.778 75.2222 136.722 75.2777 136.667 75.3333z"/>
<path style="fill:#ae735a; stroke:none;" d="M99 78C101.332 78.9845 103.457 78.9813 106 79L105 81L109 81C107.499 87.7376 115.324 88.654 117 95C118.098 92.3873 117.993 89.8355 118 87L111 85L112 80C110.311 78.7543 109.246 77.6891 108 76C104.949 76.9527 102.201 77.7963 99 78z"/>
<path style="fill:#8c6553; stroke:none;" d="M121 76L122 77L121 76z"/>
<path style="fill:#ac7f6d; stroke:none;" d="M128 77C130.046 77.7511 130.596 77.6556 132 76L128 77z"/>
<path style="fill:#935040; stroke:none;" d="M138 76C139.248 76.6848 139.548 76.7488 141 77C139.752 76.3152 139.452 76.2512 138 76z"/>
<path style="fill:#ac7f6d; stroke:none;" d="M142 77C143.458 78.0811 144.248 78.4361 146 79L146 76L142 77z"/>
<path style="fill:#754a38; stroke:none;" d="M95 77C94.1366 81.1855 92.9386 84.7878 94 89C95.1394 86.4651 95.4818 83.7443 96 81C99.5562 83.8662 103.037 86.7201 107 89C107.71 85.9424 107.669 84.7316 105 83L109 82L105 80L106 79C101.567 80.4041 99.0641 78.8732 95 77z"/>
<path style="fill:#8f5e44; stroke:none;" d="M122 77L123 78L122 77z"/>
<path style="fill:#754a38; stroke:none;" d="M126 77C125.455 78.6352 125.635 78.4549 124 79C126.263 79.8227 126.753 79.0035 128 77L126 77z"/>
<path style="fill:#603227; stroke:none;" d="M139 77C140.248 77.6848 140.548 77.7488 142 78C140.752 77.3152 140.452 77.2512 139 77z"/>
<path style="fill:#cebbb0; stroke:none;" d="M94 78L95 79L94 78z"/>
<path style="fill:#8f5e44; stroke:none;" d="M123 78L124 79L123 78z"/>
<path style="fill:#c28561; stroke:none;" d="M127 81C129.434 80.3486 130.283 79.8398 132 78C129.007 78.0642 127.654 77.9461 127 81z"/>
<path style="fill:#935040; stroke:none;" d="M132 78L130 84L135 83C134.402 81.8046 134.534 82.0226 133 81C134.195 79.7772 134.316 79.58 135 78L132 78z"/>
<path style="fill:#462f23; stroke:none;" d="M135 78C136.223 79.1952 136.42 79.3164 138 80C137.02 78.2167 137.092 78.4057 135 78z"/>
<path style="fill:#644434; stroke:none;" d="M142.667 78.3333C142.222 78.7778 143.278 78.7222 143.333 78.6667C143.778 78.2222 142.722 78.2778 142.667 78.3333z"/>
<path style="fill:#d89b76; stroke:none;" d="M146 78L149 81C149.951 78.4934 148.348 78.2942 146 78z"/>
<path style="fill:#9d9088; stroke:none;" d="M94 79L95 80L94 79z"/>
<path style="fill:#8f5e44; stroke:none;" d="M99 79C100.75 80.2549 101.857 80.6137 104 81C102.46 79.1969 101.403 79.168 99 79z"/>
<path style="fill:#ae735a; stroke:none;" d="M131 79C129.564 80.4495 128.885 81.2222 128 83C130.328 82.0884 131.632 81.571 131 79z"/>
<path style="fill:#754a38; stroke:none;" d="M134 80C135.631 81.3658 137.038 82.1418 139 83C138.134 80.0327 137.008 79.7129 134 80z"/>
<path style="fill:#8c6553; stroke:none;" d="M145.667 79.3333C145.222 79.7778 146.278 79.7222 146.333 79.6667C146.778 79.2222 145.722 79.2778 145.667 79.3333z"/>
<path style="fill:#c28561; stroke:none;" d="M147.667 79.3333C147.222 79.7778 148.278 79.7222 148.333 79.6667C148.778 79.2222 147.722 79.2777 147.667 79.3333z"/>
<path style="fill:#ac7f6d; stroke:none;" d="M93 80C91.5347 82.3611 90.5441 84.2726 90 87C91.8191 85.6356 91.031 85.5078 93 86C93.5288 83.647 93.8108 82.2393 93 80z"/>
<path style="fill:#603227; stroke:none;" d="M139 80C139.98 81.7833 139.908 81.5943 142 82C140.861 80.9846 140.388 80.6913 139 80z"/>
<path style="fill:#8f5e44; stroke:none;" d="M148 80L149 81L148 80z"/>
<path style="fill:#d4a790; stroke:none;" d="M91.6667 81.3333C91.2222 81.7778 92.2778 81.7222 92.3333 81.6667C92.7777 81.2222 91.7222 81.2778 91.6667 81.3333z"/>
<path style="fill:#431b10; stroke:none;" d="M96 81C95.0689 86.6559 99.5125 87.9644 100.726 93.0177C101.678 96.9817 98.4536 99.3989 98.8966 102.829C99.1207 104.564 101.17 106.477 102 108C102.683 106.494 102.826 105.685 103 104C104.479 104.986 104.203 105 106 105C105.014 106.479 105 106.203 105 108C107.712 107.177 108.538 106.433 110 104C112.316 105.39 112.374 107.128 113 104C113.81 106.729 113.979 109.15 114 112C114.683 110.494 114.826 109.685 115 108C116.221 112.17 115.536 115.756 115 120C120.558 115.991 118.031 105.571 116 100C114.805 100.598 115.023 100.466 114 102L113 99C107.685 99.203 106.116 95.3574 104 91L107 90C103.955 86.2357 100.192 83.4114 96 81z"/>
<path style="fill:#743626; stroke:none;" d="M133 81C133.65 82.2997 133.147 82 135 82L131 83C133.627 84.7636 135.087 84.1658 138 83C136.25 81.7451 135.143 81.3863 133 81z"/>
<path style="fill:#ae735a; stroke:none;" d="M150.667 81.3333C150.222 81.7778 151.278 81.7222 151.333 81.6667C151.778 81.2222 150.722 81.2778 150.667 81.3333z"/>
<path style="fill:#9d6b52; stroke:none;" d="M105 82C106.139 83.0154 106.612 83.3087 108 84C107.02 82.2167 107.092 82.4057 105 82M139 82C140.506 82.683 141.315 82.8259 143 83C141.494 82.317 140.685 82.1741 139 82M153 82L154 83L153 82z"/>
<path style="fill:#ac7f6d; stroke:none;" d="M136.667 83.3333C136.222 83.7778 137.278 83.7222 137.333 83.6667C137.778 83.2222 136.722 83.2777 136.667 83.3333z"/>
<path style="fill:#ebb69f; stroke:none;" d="M134 87C138.405 86.8109 142.721 86.054 147 85C142.725 82.0804 136.954 82.5464 134 87z"/>
<path style="fill:#745443; stroke:none;" d="M145 83L146 84L145 83z"/>
<path style="fill:#8c6553; stroke:none;" d="M154.667 83.3333C154.222 83.7778 155.278 83.7222 155.333 83.6667C155.778 83.2222 154.722 83.2778 154.667 83.3333z"/>
<path style="fill:#d4a790; stroke:none;" d="M156.667 83.3333C156.222 83.7778 157.278 83.7222 157.333 83.6667C157.778 83.2222 156.722 83.2777 156.667 83.3333z"/>
<path style="fill:#ae735a; stroke:none;" d="M131 84L132 85L131 84z"/>
<path style="fill:#c28561; stroke:none;" d="M135 84L136 85L135 84z"/>
<path style="fill:#8f5e44; stroke:none;" d="M156 84C157.248 84.6848 157.548 84.7488 159 85C157.752 84.3152 157.452 84.2512 156 84z"/>
<path style="fill:#d4a790; stroke:none;" d="M159 84L160 85L159 84z"/>
<path style="fill:#b39c91; stroke:none;" d="M91 85C90.2674 88.1097 89.4538 90.7646 92 93C91.703 90.2909 91.8613 87.5536 91 85z"/>
<path style="fill:#d89b76; stroke:none;" d="M132.667 85.3333C132.222 85.7778 133.278 85.7222 133.333 85.6667C133.778 85.2222 132.722 85.2778 132.667 85.3333z"/>
<path style="fill:#ac7f6d; stroke:none;" d="M148.667 85.3333C148.222 85.7778 149.278 85.7222 149.333 85.6667C149.778 85.2222 148.722 85.2778 148.667 85.3333z"/>
<path style="fill:#603227; stroke:none;" d="M150.667 85.3333C150.222 85.7778 151.278 85.7222 151.333 85.6667C151.778 85.2222 150.722 85.2778 150.667 85.3333z"/>
<path style="fill:#dcd0c7; stroke:none;" d="M160.667 85.3333C160.222 85.7778 161.278 85.7222 161.333 85.6667C161.778 85.2222 160.722 85.2777 160.667 85.3333z"/>
<path style="fill:#9d6b52; stroke:none;" d="M92 86C92.4057 88.0924 92.2167 88.0198 94 89C93.3086 87.6116 93.0154 87.1394 92 86z"/>
<path style="fill:#603227; stroke:none;" d="M95 86C96.6769 91.573 100.103 93.6533 99 100C104.851 96.095 99.6336 88.4791 95 86z"/>
<path style="fill:#8f5e44; stroke:none;" d="M108 86L107 90C110.429 89.895 112.853 90.7459 116 92C114.714 88.1084 111.568 87.5597 108 86z"/>
<path style="fill:#754a38; stroke:none;" d="M152.667 86.3333C152.222 86.7778 153.278 86.7222 153.333 86.6667C153.778 86.2222 152.722 86.2778 152.667 86.3333z"/>
<path style="fill:#575049; stroke:none;" d="M161 86L162 87L161 86z"/>
<path style="fill:#957e70; stroke:none;" d="M162 86L163 87L162 86z"/>
<path style="fill:#f8e0d3; stroke:none;" d="M163.667 86.3333C163.222 86.7778 164.278 86.7222 164.333 86.6667C164.778 86.2222 163.722 86.2778 163.667 86.3333z"/>
<path style="fill:#d6896a; stroke:none;" d="M153 87C152.598 89.5018 152.641 91.4893 153 94C154.661 93.3872 155.483 92.9573 157 92L153 97L149 96L149 100C150.58 100.684 150.777 100.805 152 102L154 102C155.724 100.944 155.921 100.964 158 101C159.324 96.3908 158.274 92.5319 157 88C155.286 87.8739 154.567 87.6976 153 87z"/>
<path style="fill:#9d6b52; stroke:none;" d="M154 89L158 88C155.954 87.2489 155.404 87.3444 154 89z"/>
<path style="fill:#462f23; stroke:none;" d="M160 88C163.662 90.4312 167.636 91.6166 172 92C168.443 89.0534 164.617 87.1083 160 88z"/>
<path style="fill:#7b6b5f; stroke:none;" d="M164 87L165 88L164 87z"/>
<path style="fill:#cebbb0; stroke:none;" d="M165 87L166 88L165 87z"/>
<path style="fill:#ac7f6d; stroke:none;" d="M91 88L91 91L94 90C92.8606 88.9845 92.3885 88.6913 91 88z"/>
<path style="fill:#8c6553; stroke:none;" d="M159 88L160 89L159 88z"/>
<path style="fill:#745443; stroke:none;" d="M166 88L167 89L166 88z"/>
<path style="fill:#9d9088; stroke:none;" d="M167 88L168 89L167 88z"/>
<path style="fill:#8f5e44; stroke:none;" d="M94.6667 89.3333C94.2222 89.7778 95.2778 89.7222 95.3333 89.6667C95.7777 89.2222 94.7222 89.2778 94.6667 89.3333z"/>
<path style="fill:#745443; stroke:none;" d="M107 90L118 104L122 98L118 99C118.141 92.3662 113.336 89.0537 107 90z"/>
<path style="fill:#ac7f6d; stroke:none;" d="M118 89L118 99L122 98C121.789 95.2615 121.697 94.578 119 94C119.562 92.1995 119.824 90.8781 120 89L118 89z"/>
<path style="fill:#f8e0d3; stroke:none;" d="M160 89L160 96C161.009 93.767 161.405 91.3956 162 89L160 89z"/>
<path style="fill:#7b6b5f; stroke:none;" d="M162 89L163 90L162 89z"/>
<path style="fill:#575049; stroke:none;" d="M168 89L169 90L168 89z"/>
<path style="fill:#957e70; stroke:none;" d="M169 89L170 90L169 89z"/>
<path style="fill:#d4a790; stroke:none;" d="M92 90C90.739 93.6269 90.5559 96.1816 91 100C92.6759 96.8095 93.7604 93.6069 94 90L92 90z"/>
<path style="fill:#d6896a; stroke:none;" d="M94.6667 90.3333C94.2222 90.7778 95.2778 90.7222 95.3333 90.6667C95.7777 90.2222 94.7222 90.2778 94.6667 90.3333z"/>
<path style="fill:#754a38; stroke:none;" d="M96.6667 90.3333C96.2222 90.7778 97.2778 90.7222 97.3333 90.6667C97.7778 90.2222 96.7222 90.2778 96.6667 90.3333z"/>
<path style="fill:#310f06; stroke:none;" d="M105 90L104 91C105.575 95.7023 107.51 100.045 113 99C113 100.797 113.014 100.521 114 102C115.666 96.671 109.566 91.6854 105 90z"/>
<path style="fill:#9d9088; stroke:none;" d="M164 90L165 91L164 90z"/>
<path style="fill:#745443; stroke:none;" d="M170 90L171 91L170 90z"/>
<path style="fill:#cebbb0; stroke:none;" d="M171 90L172 91L171 90z"/>
<path style="fill:#e8a98b; stroke:none;" d="M94 91C94.4824 93.364 94.636 93.5175 97 94C97 92.2032 96.9857 92.4785 96 91L94 91z"/>
<path style="fill:#c28561; stroke:none;" d="M96 91L97 94C93.2052 94.8272 92.3044 96.1714 92 100C94.9177 97.3218 97.7788 94.8094 99 91L96 91z"/>
<path style="fill:#cebbb0; stroke:none;" d="M166 91L167 92L166 91z"/>
<path style="fill:#7f746c; stroke:none;" d="M167 91L168 92L167 91z"/>
<path style="fill:#f8e0d3; stroke:none;" d="M172.333 91.6667C172.278 91.7222 172.222 92.7778 172.667 92.3333C172.722 92.2778 172.778 91.2222 172.333 91.6667z"/>
<path style="fill:#ae735a; stroke:none;" d="M99 92L96 95C97.506 95.683 98.3148 95.8259 100 96C99.8259 94.3148 99.683 93.506 99 92z"/>
<path style="fill:#b8aea5; stroke:none;" d="M170.667 92.3333C170.222 92.7778 171.278 92.7222 171.333 92.6667C171.778 92.2222 170.722 92.2777 170.667 92.3333z"/>
<path style="fill:#c28561; stroke:none;" d="M122 95C122.975 98.4853 124.618 99.8132 128 101L130 98L122 95z"/>
<path style="fill:#cebbb0; stroke:none;" d="M89.3333 96.6667C89.2778 96.7222 89.2222 97.7778 89.6667 97.3333C89.7223 97.2777 89.7778 96.2223 89.3333 96.6667z"/>
<path style="fill:#ac7f6d; stroke:none;" d="M90.3333 96.6667C90.2778 96.7222 90.2222 97.7778 90.6667 97.3333C90.7223 97.2777 90.7777 96.2223 90.3333 96.6667z"/>
<path style="fill:#8f5e44; stroke:none;" d="M94 97C95.6593 97.4065 96.2418 97.3086 98 97C96.1908 96.4257 95.9312 96.5347 94 97z"/>
<path style="fill:#743626; stroke:none;" d="M94 102C97.8051 101.178 98.9753 99.7135 100 96C96.3702 97.1134 94.658 98.17 94 102z"/>
<path style="fill:#d6896a; stroke:none;" d="M132 96C132.501 98.0132 132.637 99.0387 132 101C134.158 103.791 135.519 105.252 139 106C139.568 109.582 140.508 110.943 144 112C143.812 106.343 141.629 104.379 136 104C138.536 100.119 135.85 97.4602 132 96z"/>
<path style="fill:#ebb69f; stroke:none;" d="M160 96L160 99C160.696 97.4463 160.696 97.5537 160 96z"/>
<path style="fill:#7f746c; stroke:none;" d="M89 98L89 104C90.2247 101.987 90.6453 100.341 91 98L89 98z"/>
<path style="fill:#8c6553; stroke:none;" d="M93 98C92.0256 103.497 93.1407 108.541 94 114C96.7367 109.4 95.434 102.591 93 98z"/>
<path style="fill:#ae735a; stroke:none;" d="M122 98C120.87 99.4001 119.782 100.416 119 102L133 103C130.993 104.426 130.241 104.707 130 107L120 105C122.965 108.948 128.541 108.427 132 112L127 112C133.06 115.888 136.3 121.767 144 122C143.508 115.771 140.57 111.718 139 106C134.657 104.426 132.407 100.54 128 99L128 101C126.233 100.045 125.393 99.4336 124 98L122 98z"/>
<path style="fill:#d4a790; stroke:none;" d="M161 99C161 107.013 160.437 115.023 161 123C163.349 117.403 163.349 104.597 161 99z"/>
<path style="fill:#ac7f6d; stroke:none;" d="M91 100C89.2488 104.655 89.6645 108.209 94 111C93.4401 107.175 92.4151 103.876 93 100L91 100z"/>
<path style="fill:#462f23; stroke:none;" d="M97 101C95.4661 102.023 95.5977 101.805 95 103C96.6103 105.415 99.6652 108.406 100 111C104.424 107.663 99.6483 104.003 97 101z"/>
<path style="fill:#754a38; stroke:none;" d="M119 102C121.332 105.598 125.013 104.997 129 105C125.982 102.172 123.035 102.037 119 102z"/>
<path style="fill:#8f5e44; stroke:none;" d="M118 103L118 117C119.213 114.11 118.998 111.126 119 108C123.116 109.284 126.675 109.985 131 110C126.098 107.625 122.153 106.848 118 103M128 103C129.956 104.32 130.608 104.299 133 104C131.231 103.221 129.964 103.088 128 103z"/>
<path style="fill:#754a38; stroke:none;" d="M94 104C95.2197 107.547 95.3825 110.286 95 114L98 113L97 104L94 104z"/>
<path style="fill:#603227; stroke:none;" d="M103 104L102 110C105.222 110.879 107.568 111.666 110 114C110.265 111.612 110.143 109.406 110 107L105 108C104.972 105.676 104.844 105.403 103 104z"/>
<path style="fill:#462f23; stroke:none;" d="M110 104C109.367 107.803 110.27 111.232 111 115C113.895 111.643 113.985 108.305 114 104C112.805 104.598 113.023 104.466 112 106C111.232 104.686 111.314 104.768 110 104z"/>
<path style="fill:#f8e0d3; stroke:none;" d="M89.3333 105.667C89.2778 105.722 89.2222 106.778 89.6667 106.333C89.7223 106.278 89.7778 105.222 89.3333 105.667z"/>
<path style="fill:#8f5e44; stroke:none;" d="M123 105C125.314 106.591 127.19 106.858 130 107C127.692 105.241 125.908 105.083 123 105z"/>
<path style="fill:#603227; stroke:none;" d="M99 108C98.0232 109.739 97.3081 111.555 96 113C98.4621 113.697 99.6654 113.11 102 112L99 108z"/>
<path style="fill:#644434; stroke:none;" d="M115 108C113.54 113.255 111.806 116.283 112 122C116.245 123.353 116.297 125.875 116 130L120 127C120.003 131.137 119.346 135.418 123 138C122.85 130.789 120.448 124.016 119 117L115 120C115.751 115.954 116.627 111.88 115 108z"/>
<path style="fill:#9d6b52; stroke:none;" d="M119 108C119.021 110.85 119.19 113.271 120 116L123 115C122.35 113.7 122.853 114 121 114C123.799 113.869 124.869 114.181 127 116L122 116C122.768 117.314 122.686 117.232 124 118C122.583 123.951 123.204 129.982 124 136C125.67 134.33 124.697 133.424 127 134C126.67 129.932 125.79 126.104 126 122L134 123L134 125L130 125C132.166 128.166 135.972 128.671 138 132L144 131C144.747 134.686 147.375 136.76 148.49 140.184C149.303 142.681 148.882 145.433 149.329 148C149.924 151.419 151.41 154.571 152 158C161.277 159.216 159.607 167.635 166 172C164.326 165.879 161.436 160.206 160 154L156 154L156 144L150 143C150.48 140.64 150.519 139.337 150 137C152.457 134.344 149.194 127.895 147.157 125.228C144.911 122.286 141.444 122.43 138.443 120.775C135.644 119.233 134.19 116.458 131.741 114.548C128.593 112.093 123.799 111.036 120 110L122 109C120.752 108.315 120.452 108.251 119 108z"/>
<path style="fill:#c28561; stroke:none;" d="M120 109C123.658 111.909 127.462 111.987 132 112L132 110C127.92 109.989 124.037 109.51 120 109z"/>
<path style="fill:#cebbb0; stroke:none;" d="M92.3333 110.667C92.2778 110.722 92.2222 111.778 92.6667 111.333C92.7222 111.278 92.7778 110.222 92.3333 110.667z"/>
<path style="fill:#9d6b52; stroke:none;" d="M102.667 110.333C102.222 110.778 103.278 110.722 103.333 110.667C103.778 110.222 102.722 110.278 102.667 110.333z"/>
<path style="fill:#f1c5ab; stroke:none;" d="M102.667 111.333C102.222 111.778 103.278 111.722 103.333 111.667C103.778 111.222 102.722 111.278 102.667 111.333z"/>
<path style="fill:#754a38; stroke:none;" d="M104 111C106.84 115.161 109.627 118.866 110 124L114 123L115 131C117.626 130.161 118.161 129.626 119 127C117.985 128.139 117.691 128.612 117 130C116.43 125.762 116.787 122.832 112 122C111.936 118.922 111.562 116.025 111 113L109 114L109 111L104 111z"/>
<path style="fill:#b39c91; stroke:none;" d="M93 112L94 113L93 112z"/>
<path style="fill:#cebbb0; stroke:none;" d="M101 112L102 113L101 112z"/>
<path style="fill:#c28561; stroke:none;" d="M143 112C143.205 121.955 149.091 127.431 153 136L161 139C160.795 134.313 160.353 130.377 156 128C156.986 126.521 157 126.797 157 125C151.461 122.306 147.077 116.566 143 112z"/>
<path style="fill:#dcd0c7; stroke:none;" d="M93 113L94 114L93 113z"/>
<path style="fill:#7b6b5f; stroke:none;" d="M99 113L100 114L99 113z"/>
<path style="fill:#cebbb0; stroke:none;" d="M100 113L101 114L100 113z"/>
<path style="fill:#8f5e44; stroke:none;" d="M121 113C122.978 114.732 124.434 115.402 127 116C125.325 113.779 123.743 113.438 121 113z"/>
<path style="fill:#ac7f6d; stroke:none;" d="M95 114C96.506 114.683 97.3148 114.826 99 115C97.4939 114.317 96.6852 114.174 95 114z"/>
<path style="fill:#d4a790; stroke:none;" d="M106.333 114.667C106.278 114.722 106.222 115.778 106.667 115.333C106.722 115.278 106.778 114.222 106.333 114.667z"/>
<path style="fill:#ac7f6d; stroke:none;" d="M119 115C119.266 121.091 120.852 127.307 123 133C124.878 127.763 121.777 121.303 124 116C122.317 115.323 120.822 115.181 119 115z"/>
<path style="fill:#f8e0d3; stroke:none;" d="M162 115L162 120C162.83 117.969 162.83 117.031 162 115z"/>
<path style="fill:#d4a790; stroke:none;" d="M107 117L108 118L107 117z"/>
<path style="fill:#957e70; stroke:none;" d="M108 117L108 120C108.696 118.446 108.696 118.554 108 117z"/>
<path style="fill:#e8a98b; stroke:none;" d="M159 117L158 121C160.096 119.606 160.332 119.148 159 117z"/>
<path style="fill:#8c6553; stroke:none;" d="M109 118L109 122C109.71 120.241 109.71 119.759 109 118z"/>
<path style="fill:#f8e0d3; stroke:none;" d="M108.333 120.667C108.278 120.722 108.222 121.778 108.667 121.333C108.722 121.278 108.778 120.222 108.333 120.667z"/>
<path style="fill:#ebb69f; stroke:none;" d="M162 120L162 125C162.83 122.969 162.83 122.03 162 120z"/>
<path style="fill:#dcd0c7; stroke:none;" d="M109.333 122.667C109.278 122.722 109.222 123.778 109.667 123.333C109.722 123.278 109.778 122.222 109.333 122.667z"/>
<path style="fill:#8c6553; stroke:none;" d="M126 122C125.175 129.972 132.506 134.772 140 136C140.831 140.98 144.734 141.361 149 143C148.662 138.189 145.475 135.42 144 131L138 132C136.867 128.123 132.67 127.807 130 125L134 125L134 123L126 122M112 123C112.248 127.673 112.749 132.334 112.961 137C113.102 140.11 112.562 143.898 114.313 146.672C115.408 148.407 117.536 148.776 119 150C120.157 146.952 119.094 144.905 116 144C115.895 140.429 114.537 137.439 114.129 133.961C113.683 130.167 115.086 125.696 112 123z"/>
<path style="fill:#957e70; stroke:none;" d="M110 124C111.315 129.507 111.953 135.34 112 141C114.186 135.789 112.008 129.594 113 124L110 124z"/>
<path style="fill:#cebbb0; stroke:none;" d="M163 125L163 128C163.696 126.446 163.696 126.554 163 125z"/>
<path style="fill:#745443; stroke:none;" d="M114 127C114 132.968 115.623 138.193 116 144L118 144L118 139C120.479 140.337 122.19 140.816 125 141C124.89 138.558 124.572 136.377 124 134C123.317 135.506 123.174 136.315 123 138C119.94 134.735 120.012 131.325 120 127C118.389 128.792 117.148 129.92 115 131C114.826 129.315 114.683 128.506 114 127z"/>
<path style="fill:#dcd0c7; stroke:none;" d="M110 128L110 131C110.696 129.446 110.696 129.554 110 128z"/>
<path style="fill:#f1c5ab; stroke:none;" d="M164.333 128.667C164.278 128.722 164.222 129.778 164.667 129.333C164.722 129.278 164.778 128.222 164.333 128.667z"/>
<path style="fill:#745443; stroke:none;" d="M127 130L129 136L126 136L128 145L126 144C125.998 146.882 126.29 149.995 125.16 152.715C124.013 155.479 121.494 157.736 122.079 161C123.342 168.055 132.224 171.657 136.405 176.549C139.876 180.611 142.446 188.133 144.841 193C146.606 196.587 147.515 201.081 152 201C149.64 195.967 150.043 192.119 149 187C147.604 187.661 147.186 187.964 146 189L145 184C143.7 184.65 144 184.147 144 186C143.248 183.48 143.275 180.584 142.259 178.17C140.553 174.113 137.376 171.39 136 167C134.048 167.511 133.543 167.733 132 169C127.235 164.637 124.836 161.607 125 155L128 155L128 150L133 150C131.248 145.711 130.142 141.09 128 137C134.413 137.058 139.979 139.296 143.186 145.324C144.378 147.565 144.673 150.122 146.058 152.296C150.933 159.945 155.691 168.586 156.875 178C157.276 181.185 157.846 184.8 157.61 188C157.314 192.033 155.108 195.402 159 198C159.823 195.682 161.035 193.402 161.585 190.998C162.338 187.709 161.781 184.18 161.924 180.83C162.308 171.79 164.305 158.828 152 158C151.587 153.883 150.399 146.121 147.686 142.893C144.925 139.607 141.45 140.778 140 136C135.441 134.666 131.643 131.528 127 130z"/>
<path style="fill:#ae735a; stroke:none;" d="M150 131C150.488 133.365 150.856 134.794 150 137C150.246 139.121 150.231 140.874 150 143C152.106 143.644 153.795 143.906 156 144L156 154L160 154C162.073 168.04 170.301 181.223 184 186C184.718 191.757 186.831 197.025 193 198L193 208L198 208C197.063 200.753 192.168 196.238 193 189C190.351 189 190.248 186.351 187 186C186.935 182.877 187.202 178.162 184.436 176.013C180.671 173.087 174.951 175.113 171.747 170.772C169.197 167.318 172.164 164.708 171.361 161.236C170.519 157.593 165.938 155.927 164.076 152.87C159.786 145.831 164.002 137.712 153 136C152.349 133.566 151.84 132.717 150 131z"/>
<path style="fill:#f1c5ab; stroke:none;" d="M165 131L165 134C165.696 132.446 165.696 132.554 165 131z"/>
<path style="fill:#b39c91; stroke:none;" d="M111 133L111 136C111.696 134.446 111.696 134.554 111 133z"/>
<path style="fill:#8f5e44; stroke:none;" d="M125 133L125 150L120 151C120.895 153.042 121.536 154.828 122 157C126.317 153.346 125.999 149.328 126 144L128 145C127.689 141.876 126.802 139.028 126 136L129 136L129 133L125 133z"/>
<path style="fill:#f1c5ab; stroke:none;" d="M166.333 134.667C166.278 134.722 166.222 135.778 166.667 135.333C166.722 135.278 166.778 134.222 166.333 134.667z"/>
<path style="fill:#cebbb0; stroke:none;" d="M111 136L111 139C111.696 137.446 111.696 137.554 111 136z"/>
<path style="fill:#644434; stroke:none;" d="M128 137C129.691 141.403 130.641 145.883 133 150L128 150L128 155L125 155C124.331 161.542 126.335 164.531 131 169L136 167C137.594 174.304 142.929 178.187 143 186C144.3 185.35 144 185.853 144 184L146 189L149 187C149.886 203.382 156.465 216.825 164.573 231C167.022 235.283 168.963 242.09 172.648 245.397C175.076 247.575 178.993 246.999 182 247C188.754 247.003 206.084 250.254 209 243C206.965 241.703 205.305 240.667 203 240L203 235L198 237L194 228C189.993 225.899 189.93 223.052 187.716 219.456C186.396 217.312 184.335 215.762 183.058 213.557C180.815 209.686 179.771 204.943 177.938 200.83C175.845 196.133 174.571 190.956 169 190L169 186C168.315 187.248 168.251 187.549 168 189C166.483 188.043 165.661 187.613 164 187C164.328 194.172 166.792 201.213 169 208C174.174 208.676 172.191 216.221 172 220L169 220C168.15 210.634 163.614 201.459 163 192C160.427 193.608 159.71 195.056 159 198C156.017 194.704 157.535 192.116 157.787 188C158.003 184.468 157.317 180.513 156.875 177C155.677 167.474 150.765 159.326 146.058 151.522C144.731 149.321 144.421 146.735 143.186 144.514C139.782 138.393 134.453 137.019 128 137z"/>
<path style="fill:#9d6b52; stroke:none;" d="M118 139L118 143L122 144C121.162 141.387 120.29 140.536 118 139z"/>
<path style="fill:#d6896a; stroke:none;" d="M161 139C162.569 144.903 162.084 150.438 165 156C166.734 150.663 166.385 142.111 161 139z"/>
<path style="fill:#cebbb0; stroke:none;" d="M112.333 141.667C112.278 141.722 112.222 142.778 112.667 142.333C112.722 142.278 112.778 141.222 112.333 141.667z"/>
<path style="fill:#ae735a; stroke:none;" d="M122 141L122 144L118 143C119.267 147.313 117.967 152.143 120 156C120.481 153.799 120.481 153.201 120 151L125 150C124.923 146.419 124.979 143.268 122 141z"/>
<path style="fill:#ebb69f; stroke:none;" d="M169.333 144.667C169.278 144.722 169.222 145.778 169.667 145.333C169.722 145.278 169.778 144.222 169.333 144.667z"/>
<path style="fill:#b39c91; stroke:none;" d="M113 145L114 146L113 145z"/>
<path style="fill:#f1c5ab; stroke:none;" d="M170.333 145.667C170.278 145.722 170.222 146.778 170.667 146.333C170.722 146.278 170.778 145.222 170.333 145.667z"/>
<path style="fill:#cebbb0; stroke:none;" d="M114 148L115 149L114 148z"/>
<path style="fill:#ac7f6d; stroke:none;" d="M118 148C116.521 148.986 116.797 149 115 149L118 158L122 157L122 153C120.985 154.139 120.691 154.612 120 156L118 148z"/>
<path style="fill:#dcd0c7; stroke:none;" d="M115.333 150.667C115.278 150.722 115.222 151.778 115.667 151.333C115.722 151.278 115.778 150.222 115.333 150.667z"/>
<path style="fill:#f1c5ab; stroke:none;" d="M172.333 150.667C172.278 150.722 172.222 151.778 172.667 151.333C172.722 151.278 172.778 150.222 172.333 150.667z"/>
<path style="fill:#ebb69f; stroke:none;" d="M173.333 152.667C173.278 152.722 173.222 153.778 173.667 153.333C173.722 153.278 173.778 152.222 173.333 152.667z"/>
<path style="fill:#f1c5ab; stroke:none;" d="M174 152C174.406 154.092 174.217 154.02 176 155C175.309 153.612 175.015 153.139 174 152z"/>
<path style="fill:#8c6553; stroke:none;" d="M119 157C119.899 159.124 119.876 159.101 122 160C121.518 157.636 121.364 157.482 119 157z"/>
<path style="fill:#cebbb0; stroke:none;" d="M177 157C177.684 158.58 177.805 158.777 179 160C178.316 158.42 178.195 158.223 177 157M119 159L120 160L119 159z"/>
<path style="fill:#b39c91; stroke:none;" d="M120 160L121 161L120 160z"/>
<path style="fill:#f1c5ab; stroke:none;" d="M180.333 160.667C180.278 160.722 180.222 161.778 180.667 161.333C180.722 161.278 180.778 160.222 180.333 160.667z"/>
<path style="fill:#9d9088; stroke:none;" d="M121 161L122 162L121 161z"/>
<path style="fill:#c28561; stroke:none;" d="M172 162C168.479 168.778 171.486 173.587 179 174C177.658 169.13 175.536 165.623 172 162z"/>
<path style="fill:#cebbb0; stroke:none;" d="M122 163L123 164L122 163z"/>
<path style="fill:#f8e0d3; stroke:none;" d="M182.667 163.333C182.222 163.778 183.278 163.722 183.333 163.667C183.778 163.222 182.722 163.278 182.667 163.333z"/>
<path style="fill:#b8aea5; stroke:none;" d="M123 164L124 165L123 164z"/>
<path style="fill:#b39c91; stroke:none;" d="M124 165L125 166L124 165z"/>
<path style="fill:#f8e0d3; stroke:none;" d="M184.667 165.333C184.222 165.778 185.278 165.722 185.333 165.667C185.778 165.222 184.722 165.278 184.667 165.333z"/>
<path style="fill:#b39c91; stroke:none;" d="M125 166L126 167L125 166z"/>
<path style="fill:#f1c5ab; stroke:none;" d="M186.333 166.667C186.278 166.722 186.222 167.778 186.667 167.333C186.722 167.278 186.778 166.222 186.333 166.667z"/>
<path style="fill:#b39c91; stroke:none;" d="M127 168L128 169L127 168z"/>
<path style="fill:#d4a790; stroke:none;" d="M187 168L188 174C189.556 173.946 191.062 174.023 189 175L194 178C192.461 173.94 190.349 170.768 187 168z"/>
<path style="fill:#b39c91; stroke:none;" d="M128 169L129 170L128 169z"/>
<path style="fill:#9d9088; stroke:none;" d="M129 170L130 171L129 170z"/>
<path style="fill:#8f5e44; stroke:none;" d="M162 170C165.064 181.262 174.469 190.152 180.252 200.166C183.924 206.526 186.153 213.937 194 216C193.613 210.173 190.024 201.7 184 200C182.778 188.069 172.742 175.022 162 170z"/>
<path style="fill:#d6896a; stroke:none;" d="M178 170C179.161 175.321 184.454 174.903 186 180L191 180C190.69 177.753 190.336 176.826 189 175C190.853 175 190.35 175.3 191 174C189.085 172.723 189.915 172.723 188 174L187 170C185.919 171.458 185.564 172.248 185 174C184.014 172.521 184 172.797 184 171L178 170z"/>
<path style="fill:#9d9088; stroke:none;" d="M130 171L131 172L130 171z"/>
<path style="fill:#8c6553; stroke:none;" d="M159 171C158.214 175.231 157.771 178.832 159 183C160.512 179.396 160.512 174.604 159 171z"/>
<path style="fill:#dcd0c7; stroke:none;" d="M132 174C132.545 175.635 132.365 175.455 134 176C133.455 174.365 133.635 174.545 132 174z"/>
<path style="fill:#7b6b5f; stroke:none;" d="M133 174L137 180C138.147 176.577 136.01 175.259 133 174z"/>
<path style="fill:#754a38; stroke:none;" d="M162 174C161.984 180.059 161.498 185.965 162.428 191.996C163.889 201.461 167.53 210.614 169 220L172 220C172.468 216.034 174.31 208.657 169 208C167.381 201.001 164.628 194.198 164 187C166.601 188.195 167.606 189.248 168 186L169 190C177.149 192.542 179.021 205.731 182.184 212.71C183.529 215.675 186.128 217.512 187.716 220.259C189.799 223.864 189.663 226.631 194 228C194.547 231.551 196.437 233.854 198 237C199.982 236.535 200.406 236.296 202 235C199.126 230.391 197.283 224.79 193.883 220.541C191.615 217.706 188.599 216.207 186.805 212.83C179.83 199.7 173.436 183.997 162 174z"/>
<path style="fill:#d89b76; stroke:none;" d="M191 176C191.254 179.212 191.197 183.65 192.596 186.586C194.918 191.46 199.533 192.824 200 199L205 200L201 192L205 196C206.191 190.884 202.614 190.543 199.873 186.867C196.754 182.683 195.638 178.922 191 176z"/>
<path style="fill:#f1c5ab; stroke:none;" d="M194.333 176.667C194.278 176.722 194.222 177.778 194.667 177.333C194.722 177.278 194.778 176.222 194.333 176.667z"/>
<path style="fill:#b8aea5; stroke:none;" d="M135 177L136 178L135 177z"/>
<path style="fill:#d4a790; stroke:none;" d="M195 178C197.186 183.543 199.249 188.633 205 191C202.992 185.807 199.406 181.372 195 178z"/>
<path style="fill:#dcd0c7; stroke:none;" d="M136 179L137 180L136 179M137.333 180.667C137.278 180.722 137.222 181.778 137.667 181.333C137.722 181.278 137.778 180.222 137.333 180.667z"/>
<path style="fill:#c28561; stroke:none;" d="M187 180L187 186C189.378 186.921 190.755 189.013 193 189C191.817 195.475 194.629 196.463 196.657 202.042C198.899 208.209 201.379 214.275 203.695 220.425C204.854 223.503 204.984 226.499 206.83 229.335C211.097 235.889 217.798 238.659 218 247L232 247C230.831 244.39 229.551 242.889 232 241C230.83 238.925 230.308 237.363 230 235C226.584 234.863 223.39 234.46 220 235L222 231C219.988 229.242 218.419 228.084 216 227L216 224C220.802 220.887 218.921 214.534 217 210L214 212C210.395 205.296 207.109 196.685 201 192C201.762 195.077 203.209 197.387 205 200L200 199C200.686 192.75 195.836 191.182 193.012 186.587C191.814 184.637 192.026 182.189 192 180L187 180z"/>
<path style="fill:#9d6b52; stroke:none;" d="M176 181C179.182 186.748 182.845 193.525 184 200C188.209 201.933 192.647 208.199 193.242 212.91C193.492 214.89 192.362 216.686 192.933 218.66C193.934 222.124 196.972 223.748 199.12 226.324C203.536 231.618 206.938 237.763 214 240L214 247L218 247C217.916 237.73 210.591 235.279 206.315 227.715C202.282 220.582 203.458 208.579 193 208L193 198C187.334 196.37 185.174 191.475 184 186C181.09 184.335 179.304 181.978 176 181z"/>
<path style="fill:#f8e0d3; stroke:none;" d="M138.333 182.667C138.278 182.722 138.222 183.778 138.667 183.333C138.722 183.278 138.778 182.222 138.333 182.667z"/>
<path style="fill:#b39c91; stroke:none;" d="M139.333 182.667C139.278 182.722 139.222 183.778 139.667 183.333C139.722 183.278 139.778 182.222 139.333 182.667z"/>
<path style="fill:#b8aea5; stroke:none;" d="M140 185L141 186L140 185z"/>
<path style="fill:#cebbb0; stroke:none;" d="M141.333 186.667C141.278 186.722 141.222 187.778 141.667 187.333C141.722 187.278 141.778 186.222 141.333 186.667z"/>
<path style="fill:#9d9088; stroke:none;" d="M142 188L143 189L142 188z"/>
<path style="fill:#cebbb0; stroke:none;" d="M142 189L143 190L142 189z"/>
<path style="fill:#b39c91; stroke:none;" d="M143 190L144 191L143 190z"/>
<path style="fill:#dcd0c7; stroke:none;" d="M143 191L144 192L143 191z"/>
<path style="fill:#b8aea5; stroke:none;" d="M144.333 192.667C144.278 192.722 144.222 193.778 144.667 193.333C144.722 193.278 144.778 192.222 144.333 192.667z"/>
<path style="fill:#d4a790; stroke:none;" d="M206 192C205.814 194.901 206.242 197.197 207 200C208.416 199.528 208.814 199.186 210 198C210.832 201.195 212.12 202.431 215 204C212.932 199.407 209.783 195.309 206 192z"/>
<path style="fill:#9d9088; stroke:none;" d="M145 193L145 196C145.696 194.446 145.696 194.554 145 193z"/>
<path style="fill:#f8e0d3; stroke:none;" d="M145 196L146 200C146.393 198.076 146.146 197.64 145 196z"/>
<path style="fill:#9d9088; stroke:none;" d="M146 197L147 198L146 197z"/>
<path style="fill:#7f746c; stroke:none;" d="M147.333 198.667C147.278 198.722 147.222 199.778 147.667 199.333C147.722 199.278 147.778 198.222 147.333 198.667z"/>
<path style="fill:#d89b76; stroke:none;" d="M209 198C207.363 204.016 210.462 207.409 214 212C215.396 211.339 215.814 211.036 217 210L219 216L223 216C225.024 222.279 232.264 224.763 235 231C237.245 225.606 233.408 222.639 229.829 218.971C222.913 211.884 215.913 205.006 209 198z"/>
<path style="fill:#b39c91; stroke:none;" d="M147 200L148 201L147 200z"/>
<path style="fill:#957e70; stroke:none;" d="M148.333 200.667C148.278 200.722 148.222 201.778 148.667 201.333C148.722 201.278 148.778 200.222 148.333 200.667z"/>
<path style="fill:#f1c5ab; stroke:none;" d="M213.333 200.667C213.278 200.722 213.222 201.778 213.667 201.333C213.722 201.278 213.778 200.222 213.333 200.667z"/>
<path style="fill:#b8aea5; stroke:none;" d="M148 202L149 203L148 202z"/>
<path style="fill:#8c6553; stroke:none;" d="M149 202C149.939 205.26 151.296 208.068 153 211C154.512 207.114 152.339 204.057 149 202z"/>
<path style="fill:#b8aea5; stroke:none;" d="M149 204L150 205L149 204z"/>
<path style="fill:#cebbb0; stroke:none;" d="M150 206L151 207L150 206M152 210L153 211L152 210z"/>
<path style="fill:#745443; stroke:none;" d="M186 210C186.611 214.083 188.388 216.965 192 219C190.937 215.244 188.607 212.848 186 210z"/>
<path style="fill:#ebb69f; stroke:none;" d="M221 210C221.936 211.949 222.392 212.55 224 214C223.064 212.051 222.608 211.45 221 210z"/>
<path style="fill:#b39c91; stroke:none;" d="M153 211L154 212L153 211z"/>
<path style="fill:#b8aea5; stroke:none;" d="M154 213L155 214L154 213M155 215L156 216L155 215z"/>
<path style="fill:#9d9088; stroke:none;" d="M156 216L157 217L156 216z"/>
<path style="fill:#d6896a; stroke:none;" d="M219 216C218.888 219.524 218.54 221.516 216 224L216 227L222 231C220.703 232.594 220.465 233.018 220 235L230 235C230.168 237.403 230.197 238.46 232 240C226.924 243.358 231.559 246.686 236 247C236 241.141 237.263 233.585 234.271 228.301C231.426 223.278 225.71 221.06 223 216L219 216z"/>
<path style="fill:#dcd0c7; stroke:none;" d="M156 217L157 218L156 217z"/>
<path style="fill:#b8aea5; stroke:none;" d="M157 218L158 219L157 218z"/>
<path style="fill:#9d9088; stroke:none;" d="M158 219L159 220L158 219M159 221L160 222L159 221z"/>
<path style="fill:#dcd0c7; stroke:none;" d="M159 222L160 223L159 222z"/>
<path style="fill:#f8e0d3; stroke:none;" d="M232.667 222.333C232.222 222.778 233.278 222.722 233.333 222.667C233.778 222.222 232.722 222.278 232.667 222.333z"/>
<path style="fill:#8f5e44; stroke:none;" d="M195 224C198.29 228.671 202.167 234.302 203 240L209 243L208 247L214 247L214 240C210.178 238.063 206.011 234.831 203.189 231.575C200.265 228.201 199.718 225.022 195 224z"/>
<path style="fill:#b8aea5; stroke:none;" d="M161 225L162 226L161 225M162 227L163 228L162 227M163 229L164 230L163 229z"/>
<path style="fill:#b39c91; stroke:none;" d="M164 230L165 231L164 230z"/>
<path style="fill:#cebbb0; stroke:none;" d="M164 231L165 232L164 231M165.333 232.667C165.278 232.722 165.222 233.778 165.667 233.333C165.722 233.278 165.778 232.222 165.333 232.667z"/>
<path style="fill:#dcd0c7; stroke:none;" d="M166.333 234.667C166.278 234.722 166.222 235.778 166.667 235.333C166.722 235.278 166.778 234.222 166.333 234.667z"/>
<path style="fill:#b39c91; stroke:none;" d="M167 236L168 237L167 236M168 238L169 239L168 238z"/>
<path style="fill:#dcd0c7; stroke:none;" d="M168 239L169 240L168 239z"/>
<path style="fill:#9d9088; stroke:none;" d="M169.333 239.667C169.278 239.722 169.222 240.778 169.667 240.333C169.722 240.278 169.778 239.222 169.333 239.667z"/>
<path style="fill:#cebbb0; stroke:none;" d="M169 241L170 242L169 241z"/>
<path style="fill:#b39c91; stroke:none;" d="M170 242L171 243L170 242M171 244L172 245L171 244z"/>
<path style="fill:#9d9088; stroke:none;" d="M172 246L173 247L172 246z"/>
</svg>
