<?xml version="1.0" standalone="yes"?>
<svg width="1280" height="1280">

<g id="frame2"><path style="fill:black; stroke:black;" d="M493 473C492.922 481.664 488.182 487.767 483.926 495C475.783 508.839 466.894 521.942 456.166 534C443.424 548.321 436.491 567.768 422.985 580.96C413.127 590.59 399.824 596.921 389 605.513C375.107 616.541 361.89 634.105 354 650L353 650C347.98 642.846 341.558 637.392 335 631.718C330.626 627.933 326.419 623.935 322 620.206C317.768 616.634 307.073 609.148 301.603 614.603C298.552 617.646 299.02 625.983 299.001 630C298.911 648.631 300.615 666.771 304.51 685C305.776 690.926 310.454 699.037 309.603 705C307.334 720.911 283.95 726.892 278.549 742C274.433 753.511 276.953 771.677 287.015 779.39C293.009 783.985 301.261 784.717 306.895 789.419C312.04 793.712 313.024 802.319 320.039 804.427C329.048 807.135 339.009 803.672 348 803C342.707 842.309 334.208 879.576 345.254 918.999C347.189 925.907 354.645 925.201 356.852 931.058C359.584 938.309 358.199 947.35 360.04 955C363.138 967.875 369.006 980.396 373 993L374 993L361 929L419 935C418.85 953.151 416.948 967.106 422.435 985C425.954 996.476 436.209 1008.06 436.892 1020C437.489 1030.45 432.844 1042.89 430.374 1053C425.881 1071.39 421.889 1090.34 418.615 1109C417.188 1117.13 415.826 1126.75 416.015 1135C416.137 1140.33 418.285 1146.03 415.486 1151C410.718 1159.47 401.667 1166.01 395.035 1173C386.52 1181.98 378.958 1192.51 372.425 1203C365.824 1213.6 361.394 1230.25 350 1236.59C339.784 1242.27 311.553 1245.49 302.264 1236.7C290.623 1225.68 294.411 1207.53 300 1195C285.878 1205.49 292.705 1226.4 300 1239C281.806 1239.78 252.73 1242.2 251.864 1215.42C251.657 1209.03 254.298 1203.95 256 1198C240.535 1205.39 251.201 1226.04 259 1235C225.789 1242.93 222.131 1202.62 238.68 1183.09C244.406 1176.34 254.821 1175.69 263 1174C276.001 1171.3 298.532 1166.76 308.999 1158.61C321.001 1149.26 324.766 1131.19 331.244 1118C349.505 1080.83 374 1036.46 374 994L373 994C363.339 1036.24 348.475 1074 329.778 1113C323.865 1125.33 320.139 1143.83 310.737 1153.81C289.611 1176.25 238.012 1159.72 228.641 1194C227.229 1199.17 226.146 1204.64 226.015 1210C225.723 1221.91 231.449 1233.95 244 1237.62C249.699 1239.29 255.354 1237.99 261 1238.98C265.19 1239.72 268.631 1242.35 273 1242.83C287.645 1244.42 303.311 1243 318 1243C327.766 1243 342.218 1245.67 350.999 1240.77C363.757 1233.65 368.308 1216.62 375.533 1205C387.395 1185.92 404.503 1172.63 417.682 1155C421.289 1150.18 419 1143.61 419 1138C419 1126.8 420.53 1115.08 422.205 1104C424.821 1086.7 429.329 1068.04 433.594 1051C436.242 1040.42 440.537 1029.07 439.956 1018C439.18 1003.22 426.21 988.233 421.9 974C418.062 961.322 421.447 947.875 422 935C441.18 935 459.994 933.202 479 931.166C487.187 930.289 499.1 929.546 505.83 924.351C517.026 915.709 523.69 899.647 529.127 887C531.339 881.856 533.976 873.296 540.999 873.296C549.217 873.296 556.515 893.87 560.496 900C567.276 910.439 573.732 924.809 584.286 931.992C592.543 937.611 613.702 937.748 623 935L623 934C613.205 935.559 594.694 934.767 586.17 929.142C572.417 920.068 560.61 895.432 553.273 881C548.846 872.291 546.475 859.524 539 853C539.282 856.54 543.264 865.654 541.184 868.397C538.454 871.994 533.205 869.904 530.637 875.019C523.489 889.262 516.508 912.763 502.907 922.272C496.083 927.043 484.044 927.266 476 928.421C451.863 931.886 427.244 933.262 403 930.285C390.019 928.69 376.965 928.299 364 926.421C359.151 925.718 352.072 925.676 349.314 920.867C342.417 908.841 343 886.493 343 873C343 828.285 351.488 780.217 379.349 744C386.841 734.261 394.596 725.116 402.83 716C405.361 713.198 408.832 707.208 412.91 706.631C417.093 706.04 421.1 714.184 423.039 717C430.265 727.497 439.06 738.586 449 746.624C474.838 767.518 510.119 776.752 543 772.714C570.417 769.347 597.511 761.815 621 746.76C630.876 740.43 639.555 731.987 649 725C658.38 718.061 676.707 698.075 690 705.514C741.897 734.555 746.137 791.547 760.293 843C764.197 857.19 763.579 871.549 765.286 886C766.031 892.319 767.551 900.411 763.196 905.787C756.37 914.214 739.901 916.289 730 918.989C697.874 927.752 661.276 934 628 934L628 935C636.273 935 650.544 932.25 657.996 936.028C663.083 938.606 665.263 944.413 668.062 949C673.62 958.11 678.698 967.701 685.464 976C694.889 987.562 706.274 997.787 713.547 1011C731.836 1044.22 738.252 1084.37 750.864 1120C756.274 1135.28 761.406 1150.62 766.515 1166C769.062 1173.67 773.761 1183.87 773.682 1192C773.549 1205.74 753.158 1213.9 745.109 1222.1C738.832 1228.5 739.454 1244.88 742.249 1253C751.289 1279.26 777.959 1269.85 798 1273.22C812.881 1275.73 827.251 1281.34 843 1279.83C850.958 1279.07 858.462 1273.72 866 1273.5C880.094 1273.08 898.268 1278.98 911.856 1272.44C917.66 1269.64 916.284 1259.13 915.385 1254C912.366 1236.76 906.54 1221.12 899.81 1205C871.551 1137.29 839.398 1070.32 802.425 1007C798.899 1000.96 795.737 994.229 790.816 989.17C771.021 968.822 741.794 958.638 738.232 926.004C737.541 919.674 743.187 918.748 748 917.279C755.333 915.041 765.15 911.968 767.775 903.996C771.667 892.179 768.877 872.113 766.611 860C765.698 855.118 761.577 844.75 764.693 840.344C767.058 836.999 772.399 836.629 776 835.421C787.443 831.581 799.645 829.959 811 825.772C839.287 815.341 868.165 803.386 893 785.964C903.547 778.565 914.521 771.792 925 764.29C929.479 761.083 934.248 755.694 940 755.152C950.377 754.174 966.149 764.391 976 767.946C997.102 775.562 1023.52 783.035 1046 784C1045.44 771.154 1038.63 760.01 1032.78 749C1017.54 720.333 997.734 698.734 975 676C982.384 675.005 988.894 671.839 996 669.927C1007.11 666.94 1018.16 666.307 1028 659.43C1037.55 652.759 1040.81 645.272 1045 635C1047.01 630.083 1050.65 626.243 1052.07 621C1055.42 608.648 1048.13 595.353 1040.53 586C1031.78 575.228 1018.32 572.126 1006 567.009C1001.35 565.077 993.609 563.682 991.028 558.942C988.097 553.561 988.45 543.181 987.414 537C985.061 522.972 981.234 509.682 977.629 496C975.683 488.615 972.289 475.841 964.96 472.029C957.167 467.974 950.386 477.822 946.364 483C937.299 494.671 929.382 508.336 923.884 522C922.003 526.674 919.823 535.927 913.985 537.022C900.567 539.536 881.433 527.01 868 524.615C853.543 522.037 839.161 520.542 825 516.335C805.779 510.625 787.214 502.057 768 496.025C747.868 489.704 720.426 482.262 704.059 468.471C696.967 462.495 699.022 448.115 693.2 440.015C688.175 433.023 679.05 427.597 671 424.889C667.227 423.62 659.595 422.34 658.755 417.409C658.313 414.812 661.463 411.939 662.784 409.999C666.784 404.122 671.836 397.792 674 391L668 391L668 392L670 393L655 416L650 414L671 431L626 440L629 454L614 453L614 454L620 455C611.275 472.073 608.794 492.208 612.819 511C614.209 517.489 620.907 526.33 620.547 532.675C620.379 535.637 615.991 538.186 614 539.951C608.902 544.47 604.174 548.574 601.464 555C596.262 567.337 590.622 589.848 594.85 603C600.481 620.519 617.863 635.824 630 649C613.919 650.413 601.214 666.427 589 675.626C574.571 686.493 557.985 688.187 543.286 697.012C534.505 702.284 530.996 713.829 523 720L520 700L493 717C496.212 708.718 506.004 693.808 494 690L505 681L505 680C501.887 681.169 498.462 683.841 495 683.294C486.922 682.019 468.234 659.159 471.492 650.428C473.489 645.078 481.815 641.241 486 637.704C496.057 629.203 504.761 619.607 512.583 609C532.171 582.439 532 550.567 532 519C539.675 523.368 551.91 529.749 561 526.397C578.701 519.868 578.76 491.882 564 482.742C555.666 477.582 541.92 483.317 534 487C535.035 474.328 538.71 454.054 554 454L554 453L541 450L554 442L533 429C539.046 426.52 559.324 420.897 560.589 413.945C561.616 408.297 556.008 400.205 554 395C562.348 395.001 572.911 398.733 580.961 396.683C584.629 395.748 588.615 389.389 592.436 393.579C595.898 397.376 593.095 405.4 593 410L579 404L580 422L581 422L581 407C586.351 409.967 600.649 422.104 606.787 418.928C611.414 416.534 614.567 407.432 617 403L618 403L625 412L626 412L632 405L629 406L631 384C622.712 386.516 625.739 402.21 627 409L626 409C624.536 406.189 621.978 401.419 618.093 401.921C611.63 402.756 610.497 415.202 603.896 415.556C590.613 416.268 595.151 394.751 603 391L603 390L572 386.676L543 379.289L486 379C493.388 362.204 510.703 363.299 526 359L526 358C509.51 358.708 488.991 359.939 483 378C477.875 376.222 472.729 374.855 468 372.074C462.237 368.685 451.445 362.734 450.993 355C450.708 350.129 456.927 345.256 459.834 342C469.879 330.75 484.448 322.132 493 310L488 313L487 313L480 286C486.145 290.661 495.369 294.639 496 303L497 303L508.439 250L525 206L524 206C512.218 225.044 505.922 248.283 501.551 270C500.602 274.716 499.76 290.472 492.981 290.029C486.112 289.58 479.892 278.899 478.529 273C476.082 262.406 481.119 250.786 478.697 240C476.652 230.896 466.522 219.537 461 212C472.826 212.253 476.174 222.782 485 229C484.55 225.518 479.717 215.198 481.816 212.644C484.751 209.072 494.591 215.025 498 216C494.46 195.507 464.856 171.431 446 165L466 207C452.923 203.732 448.835 189.983 442.73 179C430.14 156.351 419.618 132.267 410.576 108C406.993 98.3865 400.984 85.3641 403 75C442.671 87.9305 473.029 117.959 505 143.116C514.584 150.657 522.719 159.835 530.714 169C533.252 171.909 537.916 175.966 538.41 180C539.24 186.781 527.398 197.97 525 205C530.996 199.898 532.819 191.408 539.043 186.474C546.444 180.606 562.015 178.125 560.65 192C559.81 200.548 554.236 209.879 551.424 218C544.819 237.08 540.941 257.866 539.961 278C539.617 285.073 537.792 291.004 540 298C555.321 293.15 569.823 280.543 583 271.593C615.591 249.459 648.133 224.882 676 197C682.409 219.104 690.406 240.785 696.71 263C699.15 271.6 703.795 286.283 700.268 294.985C696.269 304.856 673.354 312.958 664 317C633.02 330.386 599.653 338.794 567 346.87C556.752 349.404 533.935 350.714 527 359C538.611 357.501 549.619 353.211 561 350.665C593.259 343.45 626.253 336.179 657 323.744C671.466 317.893 684.983 309.659 699 303C684.329 335.835 656.816 354.944 635 382C647.905 376.938 659.04 362.059 668.17 351.999C672.953 346.729 677.456 339.569 685 339C687.323 352.492 695.587 366.531 701.139 379C713.316 406.346 730.076 445.528 761 455.755C768.867 458.356 779.798 457.579 788 456.907C794.325 456.388 802.474 453.765 806.74 448.956C810.421 444.806 813.181 437.098 819.001 435.417C823.738 434.049 831.944 439.052 837 439.711C855.505 442.121 873.484 435.235 882.191 418C896.156 390.357 882.838 364.458 865.742 342C832.978 298.961 782.591 266.927 736 240.86C724.167 234.24 712.837 226.768 701 220.144C695.998 217.345 689.416 216.396 685.702 211.696C675.793 199.156 672.576 176.835 666.746 162C651.048 122.051 636.903 81.5348 615.497 44C608.417 31.5856 599.985 18.2456 589.985 8C586.677 4.6106 581.42 -2.08337 576.43 2.51855C569.835 8.60071 568.455 27.4454 566.805 36C560.489 68.7391 559 100.74 559 134C559 144.99 558.746 156.014 559.015 167C559.118 171.247 561.275 176.998 555.941 178.721C540.597 183.678 532.092 165.137 522.999 156C498.972 131.857 471.564 107.735 442 90.5656C432.243 84.8993 422.644 78.41 412 74.4645C408.919 73.3225 402.709 71.4573 400.742 75.3179C395.215 86.1687 407.725 109.763 411.576 120C421.633 146.73 434.953 173.372 449.289 198C456.964 211.185 470.857 225.574 475.441 240C478.049 248.207 476.218 256.697 476.015 265C475.757 275.515 477.229 285.725 479.336 296C480.394 301.164 483.935 312.162 481.226 316.911C473.888 329.776 449.808 337.949 447.358 354C445.917 363.437 458.789 371.518 466 374.536C469.3 375.918 475.314 376.793 476.122 381.055C476.998 385.677 471.094 392.929 469.167 397C463.176 409.658 457.902 422.102 455.464 436C451.116 460.78 471.264 473 493 473z"/></g>
<g id="frame10"><path style="fill:black; stroke:black;" d="M587 123C582.904 142.857 581.86 163.872 584.729 184C585.664 190.561 585.588 200.548 592 204L601.228 182.037L610 186.914L629 201C623.659 180.357 615.795 159.223 604.467 141C600.187 134.115 595.247 125.315 587 123z"/></g>


<g id="frame13"><path style="fill:black; stroke:black;" d="M598 139L599 140L598 139z"/></g>


<g id="frame16"><path style="fill:black; stroke:black;" d="M597 142L604 148L597 142z"/></g>


<g id="frame19"><path style="fill:black; stroke:black;" d="M598 146C597.896 149.351 595.524 153.286 600 154L600 155L598 156L596 162L598 170L594 170L598 173L597 177L598 177L598 171L602 166L602 164L600 164L600 163L608 163L608 162L607 159L602 155L603 150L604 150L606 153L605 149L599 151L598 150L598 146M592 147L591 150L592 147z"/></g>

<g id="frame21"><path style="fill:black; stroke:black;" d="M594 148L596 150L596 148L594 148z"/></g>

<g id="frame23"><path style="fill:black; stroke:black;" d="M595 151L594 154L595 151z"/></g>

<g id="frame25"><path style="fill:black; stroke:black;" d="M588 154L588 157L589 157L588 154z"/></g>

<g id="frame27"><path style="fill:black; stroke:black;" d="M595 157L595 158L599 158L599 157L595 157z"/></g>

<g id="frame29"><path style="fill:black; stroke:black;" d="M591 160L593 162L591 160z"/></g>

<g id="frame31"><path style="fill:black; stroke:black;" d="M588 168L592 171L592 170L588 168z"/></g>

<g id="frame33"><path style="fill:black; stroke:black;" d="M588 175L592 173L588 175M454 173L455 174L454 173M456 174L455 176L455 177L459 177L456 174M456 178C456.958 182.788 463.478 184.611 464 182L465 182L465 185L466 185L468 184L468 183L461 181L462 178L456 178z"/></g>
<g id="frame37"><path style="fill:black; stroke:black;" d="M470 186L471 187L470 186M594 186L595 187L594 186z"/></g>

<g id="frame39"><path style="fill:black; stroke:black;" d="M462 188L462 190L464 190L462 188z"/></g>



<g id="frame43"><path style="fill:black; stroke:black;" d="M621 189L621 191L623 191L623 189L621 189M466.667 194.333L467.333 194.667L466.667 194.333z"/></g>

<g id="frame45"><path style="fill:black; stroke:black;" d="M471 195L469 198L469 199L473 200L474 195L471 195z"/></g>




<g id="frame50"><path style="fill:black; stroke:black;" d="M472 201L470 205L474 204L474 201L472 201z"/></g>


<g id="frame53"><path style="fill:black; stroke:black;" d="M473 205L474 206L473 205z"/></g>


<g id="frame56"><path style="fill:black; stroke:black;" d="M474 210L474 212L476 210L474 210z"/></g>

<g id="frame58"><path style="fill:black; stroke:black;" d="M478 217L479 218L478 217z"/></g>




<g id="frame63"><path style="fill:black; stroke:black;" d="M612 261C623.679 280.689 612.986 293.84 606 312C628.776 301.283 612.881 273.008 621 257L612 261M611 262C588.588 277.293 563.881 301.749 553 327C570.512 320.154 592.335 330.153 606 312L595 318L594 317C597.06 310.085 597.85 302.486 596.536 295C595.83 290.973 592.745 284.977 594.059 281C596.834 272.596 609.033 270.018 611 262z"/></g>
<g id="frame148"><path style="fill:black; stroke:black;" d="M487 560L488 561L487 560z"/></g>
<g id="frame157"><path style="fill:black; stroke:black;" d="M382 628L383 629L382 628z"/></g>

<g id="frame160"><path style="fill:black; stroke:black;" d="M1000 636L1001 637L1000 636z"/></g>
<g id="frame214"><path style="fill:black; stroke:black;" d="M688 954C693.927 974.537 715.251 992.246 734 1001L712.09 982.96L688 954z"/></g>
<g id="frame228"><path style="fill:black; stroke:black;" d="M792 1224L797 1218L792 1224z"/></g>
</svg>
